<?xml version="1.0" standalone="no"?>
<!DOCTYPE svg PUBLIC "-//W3C//DTD SVG 20010904//EN"
 "http://www.w3.org/TR/2001/REC-SVG-20010904/DTD/svg10.dtd">
<svg version="1.0" xmlns="http://www.w3.org/2000/svg"
 width="700.000000pt" height="700.000000pt" viewBox="0 0 700.000000 700.000000"
 preserveAspectRatio="xMidYMid meet">
<metadata>
Created by potrace 1.11, written by Peter Selinger 2001-2013
</metadata>
<g transform="translate(0.000000,700.000000) scale(0.100000,-0.100000)"
fill="#000000" stroke="none">
<path d="M3215 4514 c-563 -31 -919 -149 -1176 -391 -89 -84 -144 -158 -201
-269 -164 -318 -154 -729 24 -1002 87 -133 223 -251 371 -323 45 -22 47 -24
47 -67 0 -104 83 -415 121 -453 24 -24 55 -12 69 26 9 24 34 194 46 317 l6 66
27 -9 c42 -14 209 -46 311 -60 l96 -12 28 -97 c34 -120 58 -163 89 -158 30 4
44 39 58 146 l13 92 41 0 42 0 0 -162 c0 -181 8 -218 47 -218 13 0 28 6 34 13
24 28 92 179 123 270 l33 97 81 0 81 0 13 -37 c23 -66 51 -103 76 -103 31 0
35 8 49 93 l12 71 95 15 95 16 0 -161 c-1 -172 5 -198 48 -192 40 6 140 238
155 361 l6 51 80 31 c44 17 103 44 132 58 29 15 55 27 59 27 3 0 3 -57 -1
-127 -7 -156 0 -188 41 -188 26 0 33 7 70 82 53 105 102 255 111 334 6 59 9
66 60 117 97 97 187 236 222 343 l11 36 215 33 c118 19 215 37 215 41 0 3 -91
44 -202 91 l-202 84 -16 100 c-30 175 -100 345 -193 469 -64 85 -204 217 -288
271 -299 194 -800 303 -1274 278z m700 -114 c126 -26 132 -29 228 -120 228
-216 329 -505 314 -900 -8 -222 -53 -409 -135 -570 l-38 -75 -105 -27 c-126
-34 -139 -33 -108 6 45 58 119 190 150 269 47 124 69 236 76 393 20 464 -133
775 -502 1022 l-50 33 40 -6 c22 -4 81 -15 130 -25z m-864 -5 c215 -37 418
-147 608 -330 133 -127 208 -247 248 -395 14 -51 18 -106 18 -260 0 -174 -2
-204 -23 -275 -50 -172 -128 -288 -290 -430 -90 -79 -100 -85 -141 -85 -25 0
-51 6 -61 15 -31 28 -72 29 -113 0 -37 -24 -49 -26 -230 -36 -285 -15 -417 -4
-657 56 -153 39 -391 117 -427 140 -33 22 -106 137 -137 216 -79 198 -86 450
-20 663 111 353 396 593 838 707 130 33 254 38 387 14z m1600 -372 c156 -166
245 -366 270 -608 11 -107 7 -167 -18 -255 -18 -67 -86 -200 -116 -228 -12
-11 -64 -36 -115 -55 -77 -29 -93 -32 -88 -19 3 9 21 62 40 117 61 178 69 239
63 489 -7 305 -42 456 -142 628 l-36 60 39 -30 c21 -17 68 -62 103 -99z"/>
<path d="M2151 3634 c-25 -21 -31 -33 -31 -65 0 -86 100 -123 154 -58 35 41
34 83 -3 120 -37 37 -79 38 -120 3z"/>
<path d="M3043 3626 c-22 -19 -28 -32 -28 -66 0 -70 67 -111 128 -78 34 18 46
39 47 81 0 78 -86 115 -147 63z"/>
<path d="M2530 3135 c-11 -13 -9 -20 10 -40 58 -61 177 -71 283 -23 61 29 64
33 42 62 -13 18 -15 18 -62 -5 -67 -33 -168 -34 -212 -1 -36 26 -44 27 -61 7z"/>
</g>
</svg>
