<?xml version="1.0" encoding="utf-8"?>
<svg xmlns="http://www.w3.org/2000/svg" xmlns:xlink="http://www.w3.org/1999/xlink" version="1.1"
  style="width:0;height:0;position:absolute;overflow:hidden;">
  <defs>
    <!-- Logo -->
    <symbol id="logo" viewBox="120 120 256 256">
      <defs>
        <path id="a" d="M271.34 350.42c-2.16-2.22-5.99-12.61-6.61-17.54-.61-4.93
        1.92-9.23 5.3-9.51 2.25-.19 3.86 1.21 4.83 4.22-.91 16.69-2.08
        24.3-3.52 22.83z" />
        <path id="b" d="M224.06 357.51c-2.76-3.69-7.34-21.3-7.92-29.72-.57-8.41 2.99-15.9
        7.48-16.55 3-.44 5.07 1.9 6.21 7-2.01 28.63-3.93 41.72-5.77 39.27z" />
        <path id="c" d="M177.16 363.7c-2.89-3.86-7.69-22.29-8.29-31.1-.6-8.8 3.13-16.63
        7.83-17.32 3.13-.45 5.3 1.99 6.49 7.32-2.1 29.97-4.11 43.67-6.03
        41.1z" />
        <path id="d" d="M361.5 280l26.5-4.32-25-10.5" />
        <path id="e" d="M286.5 154.7c-5.67-31.24-28.59-39.95-37.59-40.54-8.99-.58-25.59
        14.08-14.06 53.26 7.68 26.13 21.5 40.01 41.46 41.65 10.58-15.41
        13.98-33.54 10.19-54.37z" />
        <path id="f" d="M252.5 340.18c82-1.5 109-45.5 110-68.18S354 185.68 248
        184s-120.62 54.63-120 83.68c1.13 49.04 42.5 74 124.5 72.5z" />
        <path id="g" d="M324.5 201.68c-2.68-.84 9.87 13.38 13.46 28.39s3.05 18.55 3.54
        29.61c.54 12.06.38 19.57-5.5 36.32-3.92 11.17-9.92 21.39-18
        30.68L293 336c23-16.88 34.67-41.82 35-74.82s-11.17-57-34.5-72c17
        5.83 27.33 10 31 12.5z" />
        <path id="h" d="M168 251a6.5 6.5 0 1 1-13 0 6.5 6.5 0 0 1 13 0z" />
        <path id="i" d="M293.5 362.06c2.56-2.67 7.92-16.23 9.19-22.87
        1.28-6.64-.83-12.94-4.34-13.9-2.34-.64-4.21 1.02-5.61 4.96-1.2
        22.98-.94 33.58.76 31.81z" />
        <path id="j" d="M216.5 338.75c19.06.59 40.5 1.6 52.75 1.43C291 319.51 316 299.5
        312 250.5s-44.87-63.21-50.75-66.5c-17.37-.79-36.29.78-55.45 3
        10.64-.18 25 1.21 37.2 7.48 15 7.66 43 26.5 46 54.66 3 28.17-1.67
        47.67-21 64.67s-30.06 24.1-51.5 24.94z" />
        <path id="k" d="M252 340c52-2.12 74.31-10.5 98.33-41.83-19.64 6.33-44.02 20.83-92
        21.83-20.62.43-38.88 2.81-58.33 1.77-19.45-1.03-47.73-11.37-56-14.44
        23.16 25.29 56 34.8 108 32.67z" />
        <path id="l" d="M320 182.18c26.5-17.5 25.5-42 22.5-50.5s-23-18-54.5 8c-21
        17.33-28.33 35.5-22 54.5 18.33 3.66 36.33-.34 54-12z" />
        <path id="m" d="M328.43 346.9c2.56-2.67 8.72-17.83 9.99-24.47 1.28-6.64
        2.29-8.47-1.22-9.43-2.34-.64-5.38 2.36-9.13 9-1.46 18.38-1.34
        26.68.36 24.9z" />
        <path id="n" d="M240 368c3.33-3.48 10.33-21.19 12-29.86
        1.67-8.66-1.08-16.89-5.67-18.14-3.05-.83-5.5 1.33-7.33 6.48-1.56
        30-1.22 43.84 1 41.52z" />
        <path id="o" d="M233.5 251.5a6.5 6.5 0 1 1-13 0 6.5 6.5 0 0 1 13 0z" />
      </defs>
      <use fill="#2e2514" xlink:href="#a" />
      <use fill="none" stroke="#161008" stroke-width="4" xlink:href="#a" />
      <path fill="#161008" d="M187.64 282.8c0 1-.85 1.81-1.9
      1.81s-1.91-.81-1.91-1.81c0-.99.86-1.8 1.91-1.8s1.9.81 1.9 1.8z" />
      <use fill="#2e2514" xlink:href="#b" />
      <use fill="none" stroke="#161008" stroke-width="4" xlink:href="#b" />
      <path fill="#161008" d="M211.12 283.37c0 1.04-.89 1.88-1.98
      1.88s-1.97-.84-1.97-1.88c0-1.03.88-1.87 1.97-1.87s1.98.84 1.98 1.87z" />
      <path fill="#161008" fill-opacity=".13" d="M356.44 372.25c0 13.66-45.8 24.75-102.22 24.75S152 385.91 152
      372.25s45.8-24.75 102.22-24.75 102.22 11.09 102.22 24.75z" />
      <use fill="#2e2514" xlink:href="#c" />
      <use fill="none" stroke="#161008" stroke-width="4" xlink:href="#c" />
      <use fill="#2e2514" xlink:href="#d" />
      <use fill="none" stroke="#161008" stroke-width="4" xlink:href="#d" />
      <use fill="#bbe0e5" opacity=".5" xlink:href="#e" />
      <use fill="none" stroke="#adc9ca" stroke-width="2" opacity=".5" xlink:href="#e" />
      <use fill="#ffe74f" xlink:href="#f" />
      <use fill="none" stroke="#161008" stroke-width="4" xlink:href="#f" />
      <use fill="#2a1a12" xlink:href="#g" />
      <use fill="none" stroke="#161008" stroke-width="3" xlink:href="#g" />
      <use xlink:href="#h" />
      <use fill="none" xlink:href="#h" />
      <use fill="#2e2514" xlink:href="#i" />
      <use fill="none" stroke="#161008" stroke-width="4" xlink:href="#i" />
      <path fill="none" stroke="#161008" stroke-width="4" d="M209.5 283.18c-11.5 7.37-19 4.62-24-.5" />
      <use fill="#2a1a12" xlink:href="#j" />
      <use fill="none" stroke="#161008" stroke-width="4" xlink:href="#j" />
      <use fill-opacity=".23" xlink:href="#k" />
      <use fill="none" xlink:href="#k" />
      <use fill="#bbe0e5" opacity=".5" xlink:href="#l" />
      <use fill="none" stroke="#adc9ca" stroke-width="2" opacity=".5" xlink:href="#l" />
      <use fill="#2e2414" xlink:href="#m" />
      <use fill="none" stroke="#161008" stroke-width="4" xlink:href="#m" />
      <use fill="#2e2514" xlink:href="#n" />
      <use fill="none" stroke="#161008" stroke-width="4" xlink:href="#n" />
      <use xlink:href="#o" />
      <use fill="none" xlink:href="#o" />
    </symbol>

    <!-- Hexagons -->
    <symbol viewBox="-2 0 177 200" id="hex" fill="currentColor">
      <path d="M86.60254037844386 0L173.20508075688772 50L173.20508075688772
          150L86.60254037844386 200L0 150L0 50Z" fill="currentColor" />
    </symbol>

    <!-- Icons -->
    <symbol id="search" viewBox="0 0 20 20">
      <path d="M12.9 14.32a8 8 0 1 1 1.41-1.41l5.35 5.33-1.42 1.42-5.33-5.34zM8 14A6 6 0 1 0 8 2a6 6 0 0 0 0 12z" />
    </symbol>

    <!-- HeroIcons -->
    <symbol viewBox="0 0 20 20" id="briefcase" fill="currentColor">
      <path fill-rule="evenodd"
        d="M6 6V5a3 3 0 013-3h2a3 3 0 013 3v1h2a2 2 0 012 2v3.57A22.952 22.952 0 0110 13a22.95 22.95 0 01-8-1.43V8a2 2 0 012-2h2zm2-1a1 1 0 011-1h2a1 1 0 011 1v1H8V5zm1 5a1 1 0 011-1h.01a1 1 0 110 2H10a1 1 0 01-1-1z"
        clip-rule="evenodd" />
      <path d="M2 13.692V16a2 2 0 002 2h12a2 2 0 002-2v-2.308A24.974 24.974 0 0110 15c-2.796 0-5.487-.46-8-1.308z" />
    </symbol>
    <symbol viewBox="0 0 20 20" id="external-link" fill="currentColor">
      <path d="M11 3a1 1 0 100 2h2.586l-6.293 6.293a1 1 0 101.414 1.414L15 6.414V9a1 1 0 102 0V4a1 1 0 00-1-1h-5z" />
      <path d="M5 5a2 2 0 00-2 2v8a2 2 0 002 2h8a2 2 0 002-2v-3a1 1 0 10-2 0v3H5V7h3a1 1 0 000-2H5z" />
    </symbol>
    <symbol viewBox="0 0 20 20" id="clock" fill="currentColor">
      <path fill-rule="evenodd" d="M10 18a8 8 0 100-16 8 8 0 000 16zm1-12a1 1 0 10-2 0v4a1 1 0 00.293.707l2.828 2.829a1 1 0 101.415-1.415L11 9.586V6z" clip-rule="evenodd" />
    </symbol>
    <symbol viewBox="0 0 20 20" id="home" fill="currentColor">
      <path d="M10.707 2.293a1 1 0 00-1.414 0l-7 7a1 1 0 001.414 1.414L4 10.414V17a1 1 0 001 1h2a1 1 0 001-1v-2a1 1 0 011-1h2a1 1 0 011 1v2a1 1 0 001 1h2a1 1 0 001-1v-6.586l.293.293a1 1 0 001.414-1.414l-7-7z" />
    </symbol>

    <!-- Social -->
    <symbol id="facebook" fill="currentColor" stroke-linecap="round" stroke-linejoin="round" stroke-width="2"
      viewBox="0 0 24 24">
      <path d="M18 2h-3a5 5 0 00-5 5v3H7v4h3v8h4v-8h3l1-4h-4V7a1 1 0
                011-1h3z" />
    </symbol>
    <symbol id="twitter" fill="currentColor" stroke-linecap="round" stroke-linejoin="round" stroke-width="2"
      viewBox="0 0 24 24">
      <path d="M23 3a10.9 10.9 0 01-3.14 1.53 4.48 4.48 0 00-7.86 3v1A10.66
                10.66 0 013 4s-4 9 5 13a11.64 11.64 0 01-7 2c9 5 20 0
                20-11.5a4.5 4.5 0 00-.08-.83A7.72 7.72 0 0023 3z" />
    </symbol>
    <symbol id="instagram" fill="none" stroke="currentColor" stroke-linecap="round" stroke-linejoin="round"
      stroke-width="2" viewBox="0 0 24 24">
      <rect width="20" height="20" x="2" y="2" rx="5" ry="5" />
      <path d="M16 11.37A4 4 0 1112.63 8 4 4 0 0116 11.37zm1.5-4.87h.01" />
    </symbol>
    <symbol id="linkedin" fill="currentColor" stroke-linecap="round" stroke-linejoin="round" stroke-width="2"
      viewBox="0 0 24 24">
      <path stroke="none" d="M16 8a6 6 0 016 6v7h-4v-7a2 2 0 00-2-2 2 2 0 00-2 2v7h-4v-7a6
                6 0 016-6zM2 9h4v12H2z" />
      <circle cx="4" cy="4" r="2" stroke="none" />
    </symbol>

    <!-- Astronaut -->
    <symbol id="astronaut-wire" viewBox="-9 -9 259 823">
      <path
        d="M241 0c-24 54-30 113-78 148S63 159 27 215c-35 55 32 102 73 141s103 94 98 166c-6 97-169 66-192 157-10 43-8 84 9 126"
        fill="none" stroke-width="6" stroke="#FFF"></path>
    </symbol>
    <symbol id="astronaut-left-hand" width="35" height="75">
      <path
        d="M30.23 17.209c-7.925 5.118-11.657 12.786-11.226 22.975-7.113.934-12.948 4.345-18.44 5.117C-1.951 26.539 3.92 9.346 18.635 1.369 30.66-4.39 39.53 9.398 30.23 17.209z"
        fill="#D2D2D2"></path>
      <g fill="none" stroke="#999" stroke-linecap="round">
        <path d="M11.78 6.977c7.983.129 13.547 3.968 16.308 11.111M4.67 17.161c7.307-.379 13.1 1.924 17.93 6.94">
        </path>
        <path d="M.816 31.334c6.439-2.441 12.295-1.746 18.149 2.488" stroke-linejoin="round">
        </path>
      </g>
      <g fill="#fff">
        <path
          d="M7.721 37.171c5.875-1.994 12.264 1.156 14.258 7.031l1.218 3.588c1.995 5.875-1.156 12.264-7.03 14.258-5.875 1.995-12.264-1.156-14.259-7.031L.69 51.429c-1.994-5.875 1.156-12.263 7.031-14.258z">
        </path>
        <path
          d="M7.829 38.159c5.794-1.967 12.094 1.14 14.061 6.934l5.044 14.855c1.967 5.794-1.14 12.095-6.934 14.062-5.794 1.967-12.095-1.14-14.062-6.934L.895 52.221c-1.967-5.794 1.14-12.095 6.934-14.062z">
        </path>
        <path
          d="M16.863 39.472l12.879 7.384a3.876 3.876 0 0 1 1.433 5.287 3.875 3.875 0 0 1-5.286 1.433l-12.878-7.384a3.874 3.874 0 0 1-1.434-5.286 3.874 3.874 0 0 1 5.286-1.434z">
        </path>
      </g>
    </symbol>
    <symbol id="astronaut-right-hand" width="35" height="75">
      <path
        d="M30.23 17.209c-7.925 5.118-11.657 12.786-11.226 22.975-7.113.934-12.948 4.345-18.44 5.117C-1.951 26.539 3.92 9.346 18.635 1.369 30.66-4.39 39.53 9.398 30.23 17.209z"
        fill="#D2D2D2"></path>
      <g fill="none" stroke="#999" stroke-linecap="round">
        <path d="M11.78 6.977c7.983.129 13.547 3.968 16.308 11.111M4.67 17.161c7.307-.379 13.1 1.924 17.93 6.94">
        </path>
        <path d="M.816 31.334c6.439-2.441 12.295-1.746 18.149 2.488" stroke-linejoin="round">
        </path>
      </g>
      <g fill="#fff">
        <path
          d="M7.721 37.171c5.875-1.994 12.264 1.156 14.258 7.031l1.218 3.588c1.995 5.875-1.156 12.264-7.03 14.258-5.875 1.995-12.264-1.156-14.259-7.031L.69 51.429c-1.994-5.875 1.156-12.263 7.031-14.258z">
        </path>
        <path
          d="M7.829 38.159c5.794-1.967 12.094 1.14 14.061 6.934l5.044 14.855c1.967 5.794-1.14 12.095-6.934 14.062-5.794 1.967-12.095-1.14-14.062-6.934L.895 52.221c-1.967-5.794 1.14-12.095 6.934-14.062z">
        </path>
        <path
          d="M16.863 39.472l12.879 7.384a3.876 3.876 0 0 1 1.433 5.287 3.875 3.875 0 0 1-5.286 1.433l-12.878-7.384a3.874 3.874 0 0 1-1.434-5.286 3.874 3.874 0 0 1 5.286-1.434z">
        </path>
      </g>
    </symbol>
  </defs>
</svg>