<?xml version="1.0" encoding="utf-8"?>
<svg xmlns="http://www.w3.org/2000/svg" xmlns:xlink="http://www.w3.org/1999/xlink" version="1.1"
  style="width:0;height:0;position:absolute;overflow:hidden;">
  <defs>
    <symbol viewBox="-2 0 177 200" id="hex" fill="currentColor">
      <path d="M86.60254037844386 0L173.20508075688772 50L173.20508075688772
          150L86.60254037844386 200L0 150L0 50Z" fill="currentColor" />
    </symbol>
    <symbol viewBox="-5 0 182 200" id="hex-ring" fill="currentColor">
      <path d="M86.60254037844386 0L173.20508075688772 50L173.20508075688772 150L86.60254037844386 200L0 150L0 50Z">
      </path>
    </symbol>

    <symbol viewBox="0 0 20 20" id="chevron-down" fill="currentColor">
      <path fill-rule="evenodd"
        d="M5.293 7.293a1 1 0 011.414 0L10 10.586l3.293-3.293a1 1 0 111.414 1.414l-4 4a1 1 0 01-1.414 0l-4-4a1 1 0 010-1.414z"
        clip-rule="evenodd" />
    </symbol>
    <symbol viewBox="0 0 20 20" id="users" fill="currentColor">
      <path
        d="M9 6a3 3 0 11-6 0 3 3 0 016 0zM17 6a3 3 0 11-6 0 3 3 0 016 0zM12.93 17c.046-.327.07-.66.07-1a6.97 6.97 0 00-1.5-4.33A5 5 0 0119 16v1h-6.07zM6 11a5 5 0 015 5v1H1v-1a5 5 0 015-5z" />
    </symbol>
    <symbol viewBox="0 0 20 20" id="briefcase" fill="currentColor">
      <path fill-rule="evenodd"
        d="M6 6V5a3 3 0 013-3h2a3 3 0 013 3v1h2a2 2 0 012 2v3.57A22.952 22.952 0 0110 13a22.95 22.95 0 01-8-1.43V8a2 2 0 012-2h2zm2-1a1 1 0 011-1h2a1 1 0 011 1v1H8V5zm1 5a1 1 0 011-1h.01a1 1 0 110 2H10a1 1 0 01-1-1z"
        clip-rule="evenodd" />
      <path d="M2 13.692V16a2 2 0 002 2h12a2 2 0 002-2v-2.308A24.974 24.974 0 0110 15c-2.796 0-5.487-.46-8-1.308z" />
    </symbol>
    <symbol viewBox="0 0 20 20" id="hashtag" fill="currentColor">
      <path fill-rule="evenodd"
        d="M9.243 3.03a1 1 0 01.727 1.213L9.53 6h2.94l.56-2.243a1 1 0 111.94.486L14.53 6H17a1 1 0 110 2h-2.97l-1 4H15a1 1 0 110 2h-2.47l-.56 2.242a1 1 0 11-1.94-.485L10.47 14H7.53l-.56 2.242a1 1 0 11-1.94-.485L5.47 14H3a1 1 0 110-2h2.97l1-4H5a1 1 0 110-2h2.47l.56-2.243a1 1 0 011.213-.727zM9.03 8l-1 4h2.938l1-4H9.031z"
        clip-rule="evenodd" />
    </symbol>
    <symbol viewBox="0 0 20 20" id="flag" fill="currentColor">
      <path fill-rule="evenodd"
        d="M3 6a3 3 0 013-3h10a1 1 0 01.8 1.6L14.25 8l2.55 3.4A1 1 0 0116 13H6a1 1 0 00-1 1v3a1 1 0 11-2 0V6z"
        clip-rule="evenodd" />
    </symbol>
    <symbol viewBox="0 0 20 20" id="eye" fill="currentColor">
      <path d="M10 12a2 2 0 100-4 2 2 0 000 4z" />
      <path fill-rule="evenodd"
        d="M.458 10C1.732 5.943 5.522 3 10 3s8.268 2.943 9.542 7c-1.274 4.057-5.064 7-9.542 7S1.732 14.057.458 10zM14 10a4 4 0 11-8 0 4 4 0 018 0z"
        clip-rule="evenodd" />
    </symbol>
    <symbol viewBox="0 0 20 20" id="eye-off" fill="currentColor">
      <path fill-rule="evenodd"
        d="M3.707 2.293a1 1 0 00-1.414 1.414l14 14a1 1 0 001.414-1.414l-1.473-1.473A10.014 10.014 0 0019.542 10C18.268 5.943 14.478 3 10 3a9.958 9.958 0 00-4.512 1.074l-1.78-1.781zm4.261 4.26l1.514 1.515a2.003 2.003 0 012.45 2.45l1.514 1.514a4 4 0 00-5.478-5.478z"
        clip-rule="evenodd" />
      <path
        d="M12.454 16.697L9.75 13.992a4 4 0 01-3.742-3.741L2.335 6.578A9.98 9.98 0 00.458 10c1.274 4.057 5.065 7 9.542 7 .847 0 1.669-.105 2.454-.303z" />
    </symbol>
  </defs>
</svg>